<svg width="50" height="50" viewBox="0 0 50 50" fill="none" xmlns="http://www.w3.org/2000/svg">
<path d="M50 25C50 11.1929 38.8071 0 25 0C11.1929 0 0 11.1929 0 25C0 38.8071 11.1929 50 25 50C38.8071 50 50 38.8071 50 25Z" fill="white"/>
<path fill-rule="evenodd" clip-rule="evenodd" d="M30.6814 13.8003V17.4061H28.6165C26.9988 17.4061 26.6963 18.2119 26.6963 19.3728V21.9543H30.5499L30.037 25.9971H26.6963V36.3636H22.6717V25.9971H19.3178V21.9543H22.6717V18.9768C22.6717 15.5212 24.7103 13.6364 27.6827 13.6364C29.1031 13.6364 30.3264 13.7456 30.6814 13.8003Z" fill="#39579A"/>
</svg>
